<svg id="visual" viewBox="0 0 900 600" width="900" height="600" xmlns="http://www.w3.org/2000/svg" xmlns:xlink="http://www.w3.org/1999/xlink" version="1.1"><rect x="0" y="0" width="900" height="600" fill="#ffffff"></rect><path d="M0 393L21.5 399.8C43 406.7 86 420.3 128.8 425.7C171.7 431 214.3 428 257.2 423.5C300 419 343 413 385.8 411.7C428.7 410.3 471.3 413.7 514.2 411.7C557 409.7 600 402.3 642.8 395.3C685.7 388.3 728.3 381.7 771.2 388.2C814 394.7 857 414.3 878.5 424.2L900 434L900 601L878.5 601C857 601 814 601 771.2 601C728.3 601 685.7 601 642.8 601C600 601 557 601 514.2 601C471.3 601 428.7 601 385.8 601C343 601 300 601 257.2 601C214.3 601 171.7 601 128.8 601C86 601 43 601 21.5 601L0 601Z" fill="#6988fa"></path><path d="M0 480L21.5 468.7C43 457.3 86 434.7 128.8 432.2C171.7 429.7 214.3 447.3 257.2 445.5C300 443.7 343 422.3 385.8 413.2C428.7 404 471.3 407 514.2 411.5C557 416 600 422 642.8 421C685.7 420 728.3 412 771.2 410.5C814 409 857 414 878.5 416.5L900 419L900 601L878.5 601C857 601 814 601 771.2 601C728.3 601 685.7 601 642.8 601C600 601 557 601 514.2 601C471.3 601 428.7 601 385.8 601C343 601 300 601 257.2 601C214.3 601 171.7 601 128.8 601C86 601 43 601 21.5 601L0 601Z" fill="#4063cf"></path><path d="M0 471L21.5 473.2C43 475.3 86 479.7 128.8 483.2C171.7 486.7 214.3 489.3 257.2 488C300 486.7 343 481.3 385.8 479.3C428.7 477.3 471.3 478.7 514.2 481.2C557 483.7 600 487.3 642.8 480.7C685.7 474 728.3 457 771.2 459.7C814 462.3 857 484.7 878.5 495.8L900 507L900 601L878.5 601C857 601 814 601 771.2 601C728.3 601 685.7 601 642.8 601C600 601 557 601 514.2 601C471.3 601 428.7 601 385.8 601C343 601 300 601 257.2 601C214.3 601 171.7 601 128.8 601C86 601 43 601 21.5 601L0 601Z" fill="#0041a6"></path><path d="M0 538L21.5 530.8C43 523.7 86 509.3 128.8 506.7C171.7 504 214.3 513 257.2 513.3C300 513.7 343 505.3 385.8 503.8C428.7 502.3 471.3 507.7 514.2 513.7C557 519.7 600 526.3 642.8 529.7C685.7 533 728.3 533 771.2 533.2C814 533.3 857 533.7 878.5 533.8L900 534L900 601L878.5 601C857 601 814 601 771.2 601C728.3 601 685.7 601 642.8 601C600 601 557 601 514.2 601C471.3 601 428.7 601 385.8 601C343 601 300 601 257.2 601C214.3 601 171.7 601 128.8 601C86 601 43 601 21.5 601L0 601Z" fill="#00217d"></path><path d="M0 550L21.5 547.5C43 545 86 540 128.8 542.3C171.7 544.7 214.3 554.3 257.2 560.3C300 566.3 343 568.7 385.8 566.2C428.7 563.7 471.3 556.3 514.2 552.3C557 548.3 600 547.7 642.8 549.5C685.7 551.3 728.3 555.7 771.2 553.7C814 551.7 857 543.3 878.5 539.2L900 535L900 601L878.5 601C857 601 814 601 771.2 601C728.3 601 685.7 601 642.8 601C600 601 557 601 514.2 601C471.3 601 428.7 601 385.8 601C343 601 300 601 257.2 601C214.3 601 171.7 601 128.8 601C86 601 43 601 21.5 601L0 601Z" fill="#000000"></path></svg>